<mxfile host="app.diagrams.net" modified="2024-04-02T23:04:38.157Z" agent="Mozilla/5.0 (Windows NT 10.0; Win64; x64) AppleWebKit/537.36 (KHTML, like Gecko) Chrome/123.0.0.0 Safari/537.36 Edg/123.0.0.0" version="24.2.1" etag="t0s0LhaGeXOtgu0Az5nP" type="github">
  <diagram name="Page-1" id="m54S_7QWL04rbx1RTbbq">
    <mxGraphModel>
      <root>
        <mxCell id="0" />
        <mxCell id="1" parent="0" />
      </root>
    </mxGraphModel>
  </diagram>
</mxfile>
